<?xml version="1.0" encoding="UTF-8"?><svg id="Layer_1" xmlns="http://www.w3.org/2000/svg" viewBox="0 0 232.39 54.21" width="214" height="50"><path d="M0,54.21H54.21V0H0V54.21ZM6.83,10.53h29.3c4.11,0,7.14,.81,9.1,2.43,1.9,1.5,2.98,3.8,2.93,6.22,.03,1.58-.41,3.13-1.26,4.47-.73,1.11-1.72,2.03-2.88,2.68,.08,.03,.16,.05,.24,.09,3.31,1.29,5.44,4.54,5.29,8.08,.11,2.63-1.09,5.15-3.21,6.72h0c-2.14,1.61-5.27,2.41-9.37,2.41H6.83V10.53Z"/><polygon points="37.22 16.99 31.52 16.99 24.87 27.72 18.23 16.99 12.53 16.99 12.53 37.15 37.22 37.15 37.22 16.99"/><path d="M149.13,25.04c-1.15-.73-2.61-.73-3.76,0-.57,.39-1.03,.92-1.33,1.54-.35,.76-.52,1.59-.5,2.42-.02,.83,.15,1.65,.5,2.41,.29,.63,.75,1.17,1.33,1.56,.56,.36,1.21,.55,1.88,.55,.67,0,1.32-.18,1.88-.55,.57-.39,1.03-.93,1.31-1.56,.34-.76,.5-1.58,.48-2.41,.02-.83-.14-1.66-.48-2.42-.29-.63-.74-1.16-1.31-1.54Z"/><path d="M193.35,26.31c.41-.33,.64-.84,.6-1.36,.03-.53-.19-1.04-.6-1.38-.53-.35-1.15-.51-1.78-.47h-3.17v3.67h3.17c.63,.04,1.25-.12,1.78-.45Z"/><path d="M59.41,0V54.21H232.39V0H59.41Zm28.4,37.16l-.02-9.51-4.13,7.66h-1.91l-4.1-7.36v9.2h-3.94V19.74h3.54l5.52,10.12,5.4-10.12h3.57l.05,17.41h-3.97Zm12.13,0h-4.18V20.86h4.18v16.29Zm-.2-19.34c-.49,.52-1.18,.8-1.89,.77h0c-.71,.03-1.39-.25-1.88-.76-.48-.5-.74-1.18-.72-1.88-.02-.7,.24-1.37,.72-1.88,.49-.51,1.17-.78,1.88-.76,.7-.03,1.37,.23,1.88,.71,.49,.48,.75,1.15,.72,1.83,.03,.72-.23,1.42-.71,1.95Zm14.95,17.08c-.59,.82-1.39,1.45-2.32,1.83-1.17,.47-2.43,.7-3.69,.67h0c-1.2,0-2.4-.17-3.55-.5-.97-.25-1.88-.68-2.7-1.26l1.4-3.39c.72,.49,1.51,.88,2.35,1.14,.86,.29,1.76,.43,2.67,.44,.71,.06,1.42-.08,2.05-.39,.38-.23,.61-.65,.6-1.09,.02-.35-.16-.69-.47-.86-.39-.22-.81-.37-1.25-.44-.52-.1-1.09-.2-1.7-.3-.63-.1-1.25-.24-1.86-.41-.61-.16-1.19-.43-1.72-.77-.53-.35-.96-.83-1.25-1.39-.34-.71-.5-1.49-.47-2.27-.02-.97,.26-1.92,.79-2.73,.57-.83,1.37-1.47,2.29-1.86,1.14-.48,2.36-.71,3.59-.68,1.01,0,2.02,.13,3,.36,.91,.2,1.77,.55,2.55,1.06l-1.39,3.36c-.64-.44-1.35-.76-2.11-.95-.67-.17-1.36-.25-2.05-.26-.71-.05-1.41,.1-2.04,.42-.39,.22-.64,.64-.64,1.09-.02,.37,.16,.71,.47,.91,.39,.23,.81,.4,1.25,.48,.52,.12,1.09,.23,1.7,.32,.63,.09,1.25,.23,1.86,.41,.6,.17,1.18,.43,1.7,.77,.52,.35,.95,.81,1.25,1.36,.35,.7,.52,1.48,.48,2.26,.02,.96-.27,1.89-.81,2.68Zm14.24,0c-.59,.82-1.39,1.45-2.32,1.83-1.17,.47-2.43,.7-3.69,.67h0c-1.2,0-2.4-.17-3.55-.5-.97-.25-1.88-.68-2.7-1.26l1.4-3.39c.72,.49,1.51,.88,2.35,1.14,.86,.29,1.76,.43,2.67,.44,.71,.06,1.42-.08,2.05-.39,.38-.23,.61-.65,.6-1.09,.02-.35-.16-.69-.47-.86-.39-.22-.81-.37-1.25-.44-.52-.1-1.09-.2-1.7-.3-.63-.1-1.25-.24-1.86-.41-.61-.16-1.19-.42-1.71-.77-.53-.35-.96-.83-1.25-1.39-.34-.71-.5-1.49-.47-2.27-.02-.97,.26-1.92,.79-2.73,.57-.83,1.37-1.47,2.29-1.86,1.14-.48,2.36-.71,3.59-.68,1.01,0,2.02,.13,3,.36,.91,.2,1.77,.55,2.55,1.06l-1.39,3.36c-.64-.44-1.35-.76-2.11-.95-.67-.17-1.36-.25-2.05-.26-.71-.05-1.41,.1-2.04,.42-.39,.22-.64,.64-.64,1.09-.02,.37,.16,.71,.47,.91,.39,.23,.81,.4,1.25,.48,.52,.12,1.09,.23,1.7,.32,.63,.09,1.25,.23,1.86,.41,.6,.17,1.18,.43,1.7,.77,.52,.35,.95,.81,1.25,1.36,.35,.7,.52,1.48,.48,2.26,.02,.96-.27,1.89-.81,2.68Zm7.56,2.25h-4.18V20.87s4.18,0,4.18,0v16.29Zm-.2-19.34c-.49,.52-1.18,.8-1.89,.77-.71,.03-1.39-.25-1.88-.76-.48-.5-.74-1.18-.72-1.88-.02-.7,.24-1.37,.72-1.88,.49-.51,1.17-.78,1.88-.76,.7-.03,1.37,.23,1.88,.71,.49,.48,.75,1.15,.72,1.83,.03,.72-.23,1.42-.71,1.95Zm17.85,15.5c-1.34,2.55-4.01,4.13-6.89,4.07h0c-1.44,.03-2.86-.35-4.09-1.09-1.19-.73-2.16-1.76-2.82-2.98-.7-1.33-1.06-2.81-1.03-4.31-.03-1.51,.33-3.01,1.03-4.35,.65-1.23,1.63-2.25,2.82-2.97,2.53-1.43,5.63-1.43,8.17,0,1.19,.71,2.16,1.73,2.82,2.95,.7,1.34,1.05,2.84,1.02,4.36,.03,1.5-.32,2.98-1.02,4.31Zm18.56,3.84h-4.18v-8.6c0-1.31-.25-2.28-.76-2.91-.53-.64-1.33-.98-2.16-.94-.63,0-1.24,.15-1.78,.47-.55,.34-.98,.84-1.23,1.44-.32,.79-.47,1.63-.44,2.48v8.06h-4.18V20.86h4v1.95c.41-.52,.9-.97,1.48-1.32,1-.59,2.14-.9,3.3-.88,0,0,0,0,0,0h0s0,0,0,0c1.07-.02,2.13,.25,3.07,.77,.94,.55,1.68,1.37,2.13,2.36,.56,1.28,.83,2.67,.78,4.07v9.33Zm24.62-1.27c-1.09,.85-2.69,1.27-4.8,1.27h-8.31V19.74h7.89c2.04,0,3.56,.42,4.57,1.27,.99,.81,1.55,2.02,1.51,3.3,.05,1.21-.41,2.39-1.27,3.24-.22,.19-.45,.36-.69,.51,.48,.2,.94,.47,1.35,.8,.96,.9,1.48,2.18,1.4,3.5,.06,1.37-.55,2.68-1.64,3.51Zm8.59,1.27h-4.18V20.86h4.18v16.29Zm-.2-19.34c-.49,.52-1.18,.8-1.89,.77h0c-.71,.03-1.39-.25-1.88-.76-.48-.5-.74-1.18-.72-1.88-.02-.7,.24-1.37,.72-1.88,.49-.51,1.17-.78,1.88-.76,.7-.03,1.37,.23,1.88,.71,.49,.48,.75,1.15,.72,1.83,.03,.72-.23,1.42-.71,1.95Zm11.86,19.32c-.61,.17-1.23,.26-1.86,.26h0c-1.47,.09-2.91-.44-3.97-1.47-.95-.98-1.42-2.44-1.42-4.38v-6.69h-2.23v-3.63h2.23v-3.97h4.18v3.97h3.59v3.63h-3.59v6.63c-.04,.57,.13,1.14,.48,1.59,.33,.38,.81,.58,1.31,.56,.62,.02,1.22-.2,1.69-.61l1.13,3.33c-.46,.36-.98,.62-1.54,.77Z"/><path d="M194.08,30.45c-.55-.35-1.19-.51-1.84-.47h-3.84v3.82h3.84c.65,.04,1.29-.13,1.84-.48,.79-.72,.85-1.95,.12-2.74-.04-.04-.08-.08-.12-.12Z"/></svg>
