<?xml version="1.0" encoding="UTF-8"?><svg xmlns="http://www.w3.org/2000/svg" width="45" height="45" viewBox="0 0 54.21 54.21"><defs><style>.cls-1{fill:#fff;}</style></defs><g id="Background"><rect class="cls-1" width="54.21" height="54.21"/></g><g id="Layer_1"><g><polygon points="24.87 27.72 18.23 16.99 12.53 16.99 12.53 37.15 37.22 37.15 37.22 16.99 31.52 16.99 24.87 27.72"/><path d="M0,0V54.21H54.21V0H0ZM46.35,41.21h0c-2.14,1.61-5.27,2.41-9.37,2.41H6.83V10.53h29.3c4.11,0,7.14,.81,9.1,2.43,1.9,1.5,2.98,3.8,2.93,6.22,.03,1.58-.41,3.13-1.26,4.47-.73,1.11-1.72,2.03-2.88,2.68,.08,.03,.16,.05,.24,.09,3.31,1.29,5.44,4.54,5.29,8.08,.11,2.63-1.09,5.15-3.21,6.72Z"/></g></g></svg>
