<?xml version="1.0" encoding="utf-8"?>
<!-- Generator: Adobe Illustrator 27.0.0, SVG Export Plug-In . SVG Version: 6.00 Build 0)  -->
<svg version="1.1" id="Layer_1" xmlns="http://www.w3.org/2000/svg" xmlns:xlink="http://www.w3.org/1999/xlink" x="0px" y="0px"
	 viewBox="0 0 38.9 34.2" style="enable-background:new 0 0 38.9 34.2;" xml:space="preserve">
<style type="text/css">
	.st0{enable-background:new    ;}
	.st1{fill:#F77D2B;}
</style>
<g class="st0">
	<path class="st1" d="M0,22.9c0-3.9,1-7.9,3.1-12.2C5.1,6.3,7.7,2.8,10.7,0l8.4,4.6c-1.6,2.7-2.7,5.6-3.5,8.5
		c-0.8,2.9-1.2,6.2-1.2,9.8v11.3H0V22.9z M19.7,22.9c0-3.9,1-7.9,3.1-12.2c2.1-4.3,4.6-7.8,7.6-10.6l8.4,4.6
		c-1.6,2.7-2.7,5.6-3.5,8.5c-0.8,2.9-1.2,6.2-1.2,9.8v11.3H19.7V22.9z"/>
</g>
</svg>
